HIERARCHY
ROOT Hips
{
	OFFSET 0.000000 0.000000 0.000000 
	CHANNELS 6 Xposition Yposition Zposition Xrotation Yrotation Zrotation
	JOINT LeftUpLeg
	{
		OFFSET 3.342020 0.000000 0.000000 
		CHANNELS 3 Xrotation Yrotation Zrotation
		JOINT LeftLeg
		{
			OFFSET 0.000000 -16.596310 0.000000 
			CHANNELS 3 Xrotation Yrotation Zrotation
			JOINT LeftFoot
			{
				OFFSET 0.000000 -16.136620 0.000000 
				CHANNELS 3 Xrotation Yrotation Zrotation
				JOINT LeftToeBase
				{
					OFFSET 0.000000 -1.700460 6.346200 
					CHANNELS 3 Xrotation Yrotation Zrotation
					End Site
					{
						OFFSET 0.000000 0.000000 2.952750 
					}
				}
			}
		}
	}
	JOINT RightUpLeg
	{
		OFFSET -3.342020 0.000000 0.000000 
		CHANNELS 3 Xrotation Yrotation Zrotation
		JOINT RightLeg
		{
			OFFSET 0.000000 -16.596310 0.000000 
			CHANNELS 3 Xrotation Yrotation Zrotation
			JOINT RightFoot
			{
				OFFSET 0.000000 -16.136620 0.000000 
				CHANNELS 3 Xrotation Yrotation Zrotation
				JOINT RightToeBase
				{
					OFFSET 0.000000 -1.700460 6.346200 
					CHANNELS 3 Xrotation Yrotation Zrotation
					End Site
					{
						OFFSET 0.000000 0.000000 2.952750 
					}
				}
			}
		}
	}
	JOINT Spine
	{
		OFFSET 0.000000 0.039370 0.000000 
		CHANNELS 3 Xrotation Yrotation Zrotation
		JOINT Spine1
		{
			OFFSET 0.000000 9.257930 0.000000 
			CHANNELS 3 Xrotation Yrotation Zrotation
			JOINT Neck
			{
				OFFSET 0.000000 8.814710 0.000000 
				CHANNELS 3 Xrotation Yrotation Zrotation
				JOINT Head
				{
					OFFSET 0.000000 6.894950 0.000000 
					CHANNELS 3 Xrotation Yrotation Zrotation
					End Site
					{
						OFFSET 0.000000 4.527550 0.000000 
					}
				}
			}
			JOINT LeftShoulder
			{
				OFFSET 0.000000 8.814710 0.000000 
				CHANNELS 3 Xrotation Yrotation Zrotation
				JOINT LeftArm
				{
					OFFSET 7.311640 -0.000030 0.000000 
					CHANNELS 3 Xrotation Yrotation Zrotation
					JOINT LeftForeArm
					{
						OFFSET 10.818440 -0.000040 0.000000 
						CHANNELS 3 Xrotation Yrotation Zrotation
						JOINT LeftHand
						{
							OFFSET 10.194780 -0.000040 0.000000 
							CHANNELS 3 Xrotation Yrotation Zrotation
							JOINT LeftHandThumb
							{
								OFFSET 0.000000 0.000000 0.000000 
								CHANNELS 3 Xrotation Yrotation Zrotation
								End Site
								{
									OFFSET 0.000000 0.000000 3.937000 
								}
							}
							JOINT L_Wrist_End
							{
								OFFSET 3.937000 -0.000010 0.000000 
								CHANNELS 3 Xrotation Yrotation Zrotation
							}
						}
					}
				}
			}
			JOINT RightShoulder
			{
				OFFSET 0.000000 8.814710 0.000000 
				CHANNELS 3 Xrotation Yrotation Zrotation
				JOINT RightArm
				{
					OFFSET -7.311640 -0.000030 0.000000 
					CHANNELS 3 Xrotation Yrotation Zrotation
					JOINT RightForeArm
					{
						OFFSET -10.818440 -0.000040 0.000000 
						CHANNELS 3 Xrotation Yrotation Zrotation
						JOINT RightHand
						{
							OFFSET -10.194780 -0.000040 0.000000 
							CHANNELS 3 Xrotation Yrotation Zrotation
							JOINT RightHandThumb
							{
								OFFSET 0.000000 0.000000 0.000000 
								CHANNELS 3 Xrotation Yrotation Zrotation
								End Site
								{
									OFFSET 0.000000 0.000000 3.937000 
								}
							}
							JOINT R_Wrist_End
							{
								OFFSET -5.393690 -0.000020 0.000000 
								CHANNELS 3 Xrotation Yrotation Zrotation
							}
						}
					}
				}
			}
		}
	}
}
MOTION
Frames: 11
Frame Time: 0.008333
0.000000 33.615345 0.000000 28.229099 75.308502 -25.535900 8.326500 7.213100 -4.729400 20.429600 0.000000 0.000000 -16.659500 0.615800 10.881100 -21.008200 -0.000000 0.000000 -31.703199 -1.688100 -1.303100 11.822800 -0.000000 0.000000 -0.701300 6.740600 2.710600 -18.264299 -0.000000 -0.000000 -6.584200 -0.535100 -1.751700 1.236500 -5.574900 0.212700 14.914900 -15.634800 0.131000 -13.038700 -28.320700 4.436800 -4.145900 8.430700 8.137300 -8.106700 -16.196800 -80.924500 -0.000300 -57.432800 -0.000200 -5.496900 -3.982300 5.717100 -0.000000 0.000000 0.000000 -0.000000 0.000000 0.000000 -6.707100 -7.093000 -8.132300 22.471100 17.840700 82.572701 -0.000000 13.194000 0.000000 6.390100 -4.612700 -5.011100 0.000000 -0.000000 -0.000000 0.000000 -0.000000 -0.000000 
0.000000 33.593990 0.000000 28.664801 75.346100 -26.261999 8.051700 7.395800 -4.246500 22.060801 0.000000 -0.000000 -16.289900 0.481200 10.865300 -22.054199 0.000000 0.000000 -31.467199 -1.340200 -1.007900 12.345100 -0.000000 -0.000000 -0.141200 6.311400 3.424800 -18.468399 0.000000 -0.000000 -6.716600 -0.562100 -1.522000 1.118300 -5.641300 0.392200 14.927200 -15.665100 0.132100 -13.056800 -28.267000 4.313100 -4.073700 8.479400 8.097600 -7.696600 -16.348400 -80.960503 -0.000300 -57.376301 -0.000200 -5.420200 -3.971700 5.765200 -0.000000 0.000000 -0.000000 -0.000000 0.000000 -0.000000 -6.748400 -7.082800 -8.103800 22.428900 17.847900 82.489998 -0.000100 13.506200 0.000000 6.462800 -4.533300 -4.961900 -0.000000 0.000000 -0.000000 -0.000000 0.000000 -0.000000 
0.000000 33.575333 0.000000 29.247299 75.418404 -27.173000 7.611500 7.595400 -3.671000 23.927099 -0.000000 0.000000 -15.824300 0.283800 10.775800 -23.236200 -0.000000 -0.000000 -31.202801 -0.963500 -0.701000 12.774600 0.000000 0.000000 0.751600 5.848400 4.267200 -18.463699 0.000000 0.000000 -6.825200 -0.608600 -1.293900 0.961700 -5.725100 0.609500 14.906800 -15.758400 0.177100 -13.054200 -28.184700 4.144000 -3.983400 8.570000 8.077900 -7.304700 -16.509600 -81.061401 -0.000300 -57.244598 -0.000200 -5.385000 -4.024000 5.770100 -0.000000 0.000000 0.000000 -0.000000 0.000000 0.000000 -6.858500 -7.092800 -8.079100 22.446699 18.056700 82.370697 -0.000100 13.803300 0.000000 6.357300 -4.416900 -4.972900 -0.000000 -0.000000 -0.000000 -0.000000 -0.000000 -0.000000 
0.000000 33.560177 0.000000 29.837700 75.487000 -28.166300 7.036800 7.846700 -2.995100 26.007000 -0.000000 0.000000 -15.197300 0.137600 10.904100 -24.611799 0.000000 -0.000000 -30.950800 -0.652200 -0.329600 13.271000 -0.000000 0.000000 1.755900 5.332000 5.019400 -18.248400 0.000000 0.000000 -6.910600 -0.620500 -1.039800 0.775700 -5.777500 0.892800 14.860200 -15.838000 0.188800 -12.983400 -28.179800 4.014700 -3.898800 8.608800 8.025500 -6.857900 -16.683100 -81.155602 -0.000300 -57.087002 -0.000200 -5.274900 -4.030100 5.786300 -0.000000 0.000000 -0.000000 -0.000000 0.000000 -0.000000 -6.942300 -7.149500 -8.062500 22.414900 18.097500 82.267601 -0.000100 14.141400 0.000000 6.407700 -4.304300 -4.956500 -0.000000 0.000000 -0.000000 -0.000000 0.000000 -0.000000 
0.000000 33.550323 0.000000 30.261101 75.528801 -29.094400 6.328800 8.178900 -2.154300 28.323099 0.000000 0.000000 -14.516900 -0.128100 10.551400 -25.943001 -0.000000 -0.000000 -30.768000 -0.526100 0.133200 14.018200 -0.000000 0.000000 2.368000 4.779800 5.794900 -18.095301 0.000000 0.000000 -6.966900 -0.623100 -0.763900 0.599200 -5.824200 1.252600 14.788900 -15.951200 0.237500 -12.899600 -28.113600 3.826200 -3.839900 8.716800 7.982500 -6.405200 -16.884100 -81.291702 -0.000300 -56.846100 -0.000200 -5.261400 -4.070900 5.791100 0.000000 0.000000 -0.000000 0.000000 0.000000 -0.000000 -7.019800 -7.160400 -8.024400 22.366800 18.187799 82.152000 -0.000100 14.494900 0.000000 6.363900 -4.197900 -5.021300 0.000000 0.000000 0.000000 0.000000 0.000000 0.000000 
0.000000 33.545673 0.000000 30.459101 75.579903 -29.888399 5.535900 8.537100 -1.164200 30.825500 -0.000000 0.000000 -13.604700 -0.485200 10.347600 -27.483200 0.000000 -0.000000 -30.599199 -0.654600 0.682600 14.952700 0.000000 0.000000 2.535300 4.348100 5.988700 -17.593300 0.000000 0.000000 -6.980200 -0.576900 -0.476400 0.422400 -5.825400 1.682700 14.752000 -16.142300 0.340500 -12.841900 -28.024799 3.594500 -3.747600 8.736200 7.943100 -5.949100 -17.025700 -81.474403 -0.000300 -56.550598 -0.000200 -5.126200 -4.113200 5.784700 0.000000 -0.000000 -0.000000 0.000000 -0.000000 -0.000000 -7.122800 -7.207300 -7.996100 22.334400 18.252100 82.048203 -0.000100 14.858200 0.000000 6.361300 -4.127400 -5.077200 0.000000 0.000000 0.000000 0.000000 0.000000 0.000000 
0.000000 33.546715 0.000000 30.268400 75.574898 -30.389000 4.671300 8.945300 -0.030800 33.479198 0.000000 -0.000000 -12.453100 -0.818700 10.108800 -28.954100 -0.000000 -0.000000 -30.432800 -1.028900 1.366600 16.057400 0.000000 -0.000000 2.176200 4.588400 5.382000 -17.079700 0.000000 0.000000 -6.984700 -0.498300 -0.174200 0.302000 -5.800600 2.195300 14.731600 -16.281401 0.421900 -12.779000 -27.929199 3.393300 -3.673300 8.781900 7.917500 -5.466400 -17.177999 -81.676598 -0.000300 -56.178501 -0.000200 -5.048300 -4.199700 5.799500 -0.000000 -0.000000 0.000000 -0.000000 -0.000000 0.000000 -7.180300 -7.183000 -7.944300 22.214701 18.348700 81.926399 -0.000100 15.181500 0.000000 6.234100 -4.022000 -5.038000 0.000000 -0.000000 -0.000000 0.000000 -0.000000 -0.000000 
0.000000 33.554459 0.000000 29.659401 75.500504 -30.525400 3.759100 9.396300 1.173300 36.220200 0.000000 -0.000000 -11.135200 -1.254600 9.597400 -30.316900 0.000000 0.000000 -30.253201 -1.531600 2.170200 17.299900 -0.000000 0.000000 1.592100 5.183400 4.197100 -16.870800 -0.000000 -0.000000 -6.967500 -0.361600 0.127900 0.230100 -5.724400 2.761900 14.802600 -16.375200 0.482300 -12.840200 -27.880199 3.315100 -3.598400 8.848400 7.840900 -4.965600 -17.309099 -81.852303 -0.000300 -55.834202 -0.000200 -4.872100 -4.016600 5.789600 0.000000 0.000000 0.000000 0.000000 0.000000 0.000000 -7.194000 -7.101600 -7.853700 22.025000 18.423901 81.802902 -0.000100 15.497500 0.000000 6.132500 -3.918800 -5.122200 0.000000 0.000000 0.000000 0.000000 0.000000 0.000000 
0.000000 33.564503 0.000000 28.877899 75.393700 -30.413799 2.797400 9.751800 2.291500 39.020699 -0.000000 0.000000 -9.597900 -1.553600 9.100100 -31.410700 -0.000000 -0.000000 -30.085199 -2.002500 2.904800 18.623301 -0.000000 0.000000 0.984200 5.640400 2.858100 -16.587200 -0.000000 -0.000000 -6.926500 -0.201100 0.376300 0.173600 -5.620600 3.306900 14.787900 -16.541500 0.597900 -12.816900 -27.736099 3.104600 -3.527100 8.961400 7.833300 -4.554000 -17.392200 -82.164803 -0.000300 -55.331100 -0.000200 -4.675700 -3.981000 5.735500 0.000000 0.000000 0.000000 0.000000 0.000000 0.000000 -7.259200 -7.044500 -7.806100 21.752600 18.649401 81.697403 -0.000100 15.725700 0.000000 5.960000 -3.859200 -5.153600 -0.000000 0.000000 -0.000000 -0.000000 0.000000 -0.000000 
0.000000 33.575752 0.000000 27.827200 75.170403 -29.921801 1.790200 10.110000 3.250600 41.860100 -0.000000 0.000000 -8.032800 -1.786600 8.509000 -32.088200 -0.000000 -0.000000 -29.914101 -2.270600 3.584200 19.898500 0.000000 0.000000 0.329700 5.926600 1.688400 -16.381800 -0.000000 -0.000000 -6.847400 0.026900 0.576900 0.081500 -5.445300 3.788700 14.772400 -16.674801 0.696300 -12.743700 -27.635500 2.972000 -3.450800 9.069700 7.858000 -4.154200 -17.407600 -82.532997 -0.000300 -54.760101 -0.000200 -4.377400 -3.948100 5.674500 0.000000 -0.000000 -0.000000 0.000000 -0.000000 -0.000000 -7.291100 -6.978400 -7.772700 21.374599 18.976200 81.606499 -0.000100 15.907600 0.000000 5.802400 -3.773800 -5.162700 -0.000000 -0.000000 0.000000 -0.000000 -0.000000 0.000000 
0.000000 33.589996 0.000000 26.611200 74.900703 -29.171700 0.786200 10.388300 4.069500 44.672401 0.000000 0.000000 -6.493800 -2.037700 7.918200 -32.162701 -0.000000 0.000000 -29.653900 -2.288700 4.230800 21.001900 -0.000000 0.000000 -0.312200 6.076800 0.495500 -16.302299 -0.000000 -0.000000 -6.760800 0.247200 0.710700 0.026600 -5.271000 4.219000 14.755100 -16.777300 0.805100 -12.664600 -27.494400 2.867300 -3.373100 9.265100 7.927500 -3.784500 -17.376699 -82.950996 -0.000300 -54.134499 -0.000100 -4.106700 -3.878800 5.602600 0.000000 -0.000000 -0.000000 0.000000 -0.000000 -0.000000 -7.299200 -6.822200 -7.700300 20.922300 19.335300 81.510498 -0.000100 16.102800 0.000000 5.525500 -3.686000 -5.268400 -0.000000 0.000000 -0.000000 -0.000000 0.000000 -0.000000 
